<svg width="48" height="48" viewBox="0 0 48 48" fill="none" xmlns="http://www.w3.org/2000/svg">
<g id="Group">
<path id="Path" d="M21 21L7.24264 34.7573C6.44699 35.553 6 36.6321 6 37.7573C6 38.8825 6.44699 39.9617 7.24264 40.7573V40.7573C8.03829 41.553 9.11742 42 10.2426 42C11.3679 42 12.447 41.553 13.2426 40.7573L27 27" stroke="#0085FF" stroke-width="2" stroke-linecap="round" stroke-linejoin="round"/>
<path id="Path_2" fill-rule="evenodd" clip-rule="evenodd" d="M39.2583 6.06546L34.3536 7.69978C33.5368 7.97195 32.9859 8.73625 32.9858 9.59716V13.0142C32.9858 14.1187 33.8813 15.0142 34.9858 15.0142H38.405C39.2662 15.0142 40.0306 14.4629 40.3026 13.6458L41.9347 8.74218C42.0542 8.38305 41.9607 7.98722 41.6932 7.7195L40.2818 6.30734C40.014 6.03935 39.6178 5.94571 39.2583 6.06546Z" stroke="#0085FF" stroke-width="2" stroke-linecap="round" stroke-linejoin="round"/>
<path id="Path_3" d="M23.9998 23.9997L33.5714 14.4281" stroke="#0085FF" stroke-width="2" stroke-linecap="round" stroke-linejoin="round"/>
<path id="Path_4" d="M20 20L28 28" stroke="#0085FF" stroke-width="2" stroke-linecap="round" stroke-linejoin="round"/>
<path id="Path_5" d="M12.48 21.52L6.60003 15.64C5.79999 14.8388 5.79999 13.5411 6.60003 12.74L12.74 6.59997C13.5412 5.79993 14.8389 5.79993 15.64 6.59997L24.52 15.48" stroke="#0085FF" stroke-width="2" stroke-linecap="round" stroke-linejoin="round"/>
<path id="Path_6" d="M32.52 23.48L41.4 32.36C42.2 33.1611 42.2 34.4588 41.4 35.26L35.26 41.4C34.4588 42.2 33.1611 42.2 32.36 41.4L26.48 35.52" stroke="#0085FF" stroke-width="2" stroke-linecap="round" stroke-linejoin="round"/>
</g>
</svg>
