<svg width="92" height="56" viewBox="0 0 92 56" fill="none" xmlns="http://www.w3.org/2000/svg">
<g id="Logo">
<path id="path2" fill-rule="evenodd" clip-rule="evenodd" d="M13.4947 0.186249H78.517C85.8371 0.186249 91.8262 6.15381 91.8262 13.4476V42.5147C91.8262 49.8085 85.8371 55.776 78.517 55.776H13.4947C6.17462 55.776 0.185547 49.8085 0.185547 42.5147V13.4476C0.185547 6.15381 6.17462 0.186249 13.4947 0.186249Z" fill="#1F1A17"/>
<g id="path4">
<path fill-rule="evenodd" clip-rule="evenodd" d="M6.08203 38.5702L29.3564 14.9102C29.6776 14.9102 31.3627 15.5305 31.7086 15.7525C32.2651 16.1097 32.5446 16.6352 32.5446 17.3303C32.5446 17.7661 32.4007 18.248 32.1847 18.7977L27.5798 30.5133L36.6883 21.3818C37.5827 20.4851 38.1386 19.9055 38.4323 19.7213C38.9305 19.4089 39.6559 19.2776 40.5971 19.2855C40.9736 19.2886 41.3649 19.4262 41.7875 19.7048C42.4279 20.1268 42.7508 20.7419 42.7508 21.5529C42.7508 22.0163 42.6842 22.5401 42.4297 23.0865L36.2336 36.3886H43.3873H43.5363C43.0824 38.1098 48.912 38.9704 46.3597 38.9704H33.205C31.3891 38.9704 30.481 38.4463 30.481 37.4037C30.481 37.034 30.5973 36.5541 30.8243 35.9638L33.504 28.9796L24.9445 37.2106C24.1748 38.5401 23.3222 39.2021 22.4031 39.2021C22.2315 39.2021 22.0488 39.1856 21.855 39.1525C20.7311 39.0145 20.1664 38.4022 20.1664 37.3154C20.1664 36.8961 20.266 36.4493 20.4598 35.9638L23.6655 25.7027L13.9543 37.2878C13.1315 38.2694 12.4225 39.0631 11.2303 38.9704L6.08203 38.5702ZM54.2607 21.35C54.2607 22.4312 53.8399 23.347 53.0039 24.1028C52.1623 24.8586 51.1547 25.2338 49.9754 25.2338C48.7739 25.2338 47.7552 24.8586 46.9137 24.1028C46.0776 23.347 45.6568 22.4312 45.6568 21.35C45.6568 20.2852 46.0776 19.375 46.9137 18.6191C47.7552 17.8634 48.7739 17.4882 49.9754 17.4882C51.1547 17.4882 52.1623 17.8634 53.0039 18.6191C53.8399 19.375 54.2607 20.2852 54.2607 21.35ZM63.6874 36.0885C62.9086 38.7056 62.0141 38.9704 61.2674 38.9704H45.6347C44.09 38.9704 43.3149 38.3249 43.3149 37.0286C43.3149 36.8239 43.3393 36.6106 43.3873 36.3886C43.4247 36.2155 43.4764 36.0371 43.5419 35.8534L46.0056 27.9811H51.8246L49.1947 36.3886L59.954 36.1658L63.6874 36.0885ZM84.4241 36.3886C84.3798 37.194 84.0033 37.8395 83.2891 38.3249C82.6413 38.7553 81.8884 38.9704 81.0302 38.9704H74.7849C73.9322 38.9704 73.2789 38.7443 72.836 38.2919C72.5481 37.9995 72.1772 37.3651 71.7342 36.3886L68.5452 29.3216C68.9438 29.2499 69.8684 28.941 71.319 28.4059C72.7197 27.8873 73.6 27.5342 73.9599 27.3411C76.1081 26.2322 77.1822 24.8421 77.1822 23.176C77.1822 21.2617 75.8202 20.3018 73.0962 20.3018H56.5529L59.0831 16.2304H75.4161C81.2904 16.2304 84.2248 18.0896 84.2248 21.8134C84.2248 24.9634 81.1797 27.7163 75.0894 30.0719L77.9739 36.3886H84.4241ZM70.0788 22.3871L64.8577 38.9704H59.0776L59.954 36.1658L64.2598 22.3871H70.0788Z" fill="#FFF500"/>
<path d="M43.5363 36.3886H43.3873C43.3393 36.6106 43.3149 36.8239 43.3149 37.0286C43.3149 38.3249 44.09 38.9704 45.6347 38.9704H46.3597C48.912 38.9704 43.0824 38.1098 43.5363 36.3886Z" fill="#FFF500"/>
<path d="M61.2674 38.9704C62.0141 38.9704 62.9086 38.7056 63.6874 36.0885L59.954 36.1658L59.0776 38.9704H61.2674Z" fill="#FFF500"/>
</g>
<path id="path6" fill-rule="evenodd" clip-rule="evenodd" d="M49.9816 17.021C50.5486 17.021 51.11 17.1323 51.6339 17.3485C52.1578 17.5647 52.6337 17.8816 53.0347 18.2811C53.4356 18.6806 53.7537 19.1549 53.9706 19.6769C54.1876 20.1988 54.2993 20.7583 54.2993 21.3233C54.2993 22.1742 54.0461 23.006 53.5716 23.7135C53.0972 24.421 52.4229 24.9724 51.6339 25.298C50.8449 25.6236 49.9768 25.7088 49.1392 25.5428C48.3017 25.3768 47.5323 24.9671 46.9285 24.3654C46.3246 23.7637 45.9134 22.9971 45.7468 22.1626C45.5802 21.328 45.6657 20.463 45.9925 19.6769C46.3193 18.8907 46.8727 18.2188 47.5828 17.7461C48.2928 17.2733 49.1276 17.021 49.9816 17.021Z" fill="#0085FF"/>
<g id="text10">
<path d="M12.8384 43.9672L13.424 44.1146C13.3013 44.5939 13.0799 44.9599 12.7599 45.2125C12.4419 45.4632 12.0524 45.5886 11.5915 45.5886C11.1145 45.5886 10.7261 45.4923 10.4262 45.2998C10.1283 45.1053 9.90092 44.8245 9.74393 44.4575C9.58896 44.0905 9.51147 43.6965 9.51147 43.2753C9.51147 42.8161 9.59902 42.416 9.77412 42.0751C9.95123 41.7322 10.2018 41.4725 10.5258 41.296C10.8519 41.1175 11.2101 41.0283 11.6006 41.0283C12.0434 41.0283 12.4157 41.1406 12.7176 41.3652C13.0195 41.5898 13.2298 41.9056 13.3486 42.3127L12.7719 42.4481C12.6693 42.1272 12.5204 41.8936 12.3251 41.7472C12.1299 41.6008 11.8844 41.5276 11.5885 41.5276C11.2484 41.5276 10.9636 41.6088 10.7341 41.7713C10.5067 41.9337 10.3467 42.1523 10.2541 42.427C10.1616 42.6998 10.1153 42.9815 10.1153 43.2723C10.1153 43.6473 10.1696 43.9752 10.2783 44.256C10.389 44.5347 10.5601 44.7433 10.7915 44.8817C11.023 45.02 11.2735 45.0892 11.5432 45.0892C11.8713 45.0892 12.149 44.995 12.3765 44.8064C12.6039 44.6179 12.7578 44.3382 12.8384 43.9672Z" fill="#FFF500"/>
<path d="M13.8769 43.916C13.8769 43.3245 14.0419 42.8863 14.372 42.6015C14.6477 42.3649 14.9838 42.2465 15.3803 42.2465C15.8211 42.2465 16.1813 42.3909 16.4611 42.6797C16.7408 42.9665 16.8807 43.3636 16.8807 43.8709C16.8807 44.282 16.8183 44.6059 16.6935 44.8425C16.5708 45.0772 16.3906 45.2597 16.1532 45.39C15.9177 45.5204 15.6601 45.5855 15.3803 45.5855C14.9315 45.5855 14.5682 45.4422 14.2905 45.1554C14.0147 44.8686 13.8769 44.4555 13.8769 43.916ZM14.4354 43.916C14.4354 44.3252 14.5249 44.632 14.7041 44.8365C14.8832 45.0391 15.1086 45.1403 15.3803 45.1403C15.65 45.1403 15.8744 45.0381 16.0535 44.8335C16.2326 44.629 16.3222 44.3171 16.3222 43.898C16.3222 43.5029 16.2316 43.2041 16.0505 43.0016C15.8714 42.797 15.648 42.6948 15.3803 42.6948C15.1086 42.6948 14.8832 42.796 14.7041 42.9986C14.5249 43.2011 14.4354 43.5069 14.4354 43.916Z" fill="#FFF500"/>
<path d="M17.5207 45.5134V42.3187H18.0098V42.773C18.2453 42.422 18.5854 42.2465 19.0302 42.2465C19.2234 42.2465 19.4005 42.2816 19.5615 42.3518C19.7246 42.42 19.8463 42.5103 19.9268 42.6226C20.0073 42.7349 20.0637 42.8682 20.0959 43.0226C20.116 43.1229 20.1261 43.2984 20.1261 43.5491V45.5134H19.5827V43.5701C19.5827 43.3495 19.5615 43.1851 19.5193 43.0768C19.477 42.9665 19.4015 42.8793 19.2929 42.8151C19.1862 42.7489 19.0604 42.7158 18.9155 42.7158C18.684 42.7158 18.4838 42.789 18.3147 42.9354C18.1477 43.0818 18.0641 43.3595 18.0641 43.7687V45.5134H17.5207Z" fill="#FFF500"/>
<path d="M20.745 44.5598L21.2823 44.4756C21.3125 44.6901 21.396 44.8546 21.5329 44.9689C21.6718 45.0832 21.865 45.1403 22.1125 45.1403C22.3621 45.1403 22.5473 45.0902 22.668 44.9899C22.7888 44.8877 22.8492 44.7683 22.8492 44.632C22.8492 44.5096 22.7958 44.4134 22.6892 44.3432C22.6147 44.2951 22.4295 44.2339 22.1337 44.1597C21.7352 44.0594 21.4584 43.9732 21.3035 43.901C21.1505 43.8268 21.0338 43.7255 20.9533 43.5972C20.8748 43.4668 20.8355 43.3234 20.8355 43.167C20.8355 43.0246 20.8677 42.8933 20.9321 42.773C20.9986 42.6506 21.0881 42.5494 21.2008 42.4691C21.2854 42.407 21.4001 42.3548 21.545 42.3127C21.6919 42.2686 21.8489 42.2465 22.0159 42.2465C22.2675 42.2465 22.4879 42.2826 22.6771 42.3548C22.8683 42.427 23.0092 42.5253 23.0997 42.6496C23.1903 42.772 23.2527 42.9364 23.2869 43.143L22.7556 43.2152C22.7314 43.0507 22.661 42.9224 22.5443 42.8301C22.4295 42.7379 22.2665 42.6917 22.0552 42.6917C21.8056 42.6917 21.6275 42.7329 21.5208 42.8151C21.4142 42.8973 21.3608 42.9936 21.3608 43.1039C21.3608 43.174 21.383 43.2372 21.4272 43.2934C21.4715 43.3515 21.541 43.3997 21.6356 43.4378C21.6899 43.4578 21.8499 43.5039 22.1156 43.5761C22.5 43.6784 22.7677 43.7626 22.9186 43.8288C23.0716 43.893 23.1913 43.9872 23.2779 44.1116C23.3644 44.2359 23.4077 44.3903 23.4077 44.5748C23.4077 44.7553 23.3543 44.9258 23.2477 45.0862C23.143 45.2446 22.9911 45.368 22.7918 45.4562C22.5926 45.5424 22.3671 45.5855 22.1156 45.5855C21.6989 45.5855 21.381 45.4993 21.1616 45.3269C20.9442 45.1544 20.8053 44.8987 20.745 44.5598Z" fill="#FFF500"/>
<path d="M25.2402 45.029L25.3187 45.5073C25.1657 45.5394 25.0288 45.5555 24.9081 45.5555C24.7108 45.5555 24.5579 45.5244 24.4492 45.4622C24.3405 45.4 24.264 45.3188 24.2198 45.2186C24.1755 45.1163 24.1534 44.9027 24.1534 44.5778V42.7399H23.7549V42.3187H24.1534V41.5276L24.6937 41.2027V42.3187H25.2402V42.7399H24.6937V44.6079C24.6937 44.7623 24.7028 44.8616 24.7209 44.9057C24.741 44.9498 24.7722 44.9849 24.8145 45.011C24.8588 45.0371 24.9212 45.0501 25.0017 45.0501C25.0621 45.0501 25.1416 45.0431 25.2402 45.029Z" fill="#FFF500"/>
<path d="M25.7685 45.5134V42.3187H26.2576V42.803C26.3823 42.5764 26.4971 42.427 26.6017 42.3548C26.7084 42.2826 26.8251 42.2465 26.9519 42.2465C27.1351 42.2465 27.3212 42.3047 27.5104 42.421L27.3232 42.9234C27.1904 42.8452 27.0576 42.8061 26.9247 42.8061C26.806 42.8061 26.6993 42.8422 26.6047 42.9143C26.5101 42.9845 26.4427 43.0828 26.4025 43.2091C26.3421 43.4017 26.3119 43.6122 26.3119 43.8408V45.5134H25.7685Z" fill="#FFF500"/>
<path d="M29.9346 45.5134V45.0441C29.6851 45.4051 29.3459 45.5855 28.9172 45.5855C28.7281 45.5855 28.5509 45.5495 28.3859 45.4773C28.2229 45.4051 28.1011 45.3148 28.0206 45.2065C27.9421 45.0962 27.8868 44.9619 27.8546 44.8034C27.8324 44.6972 27.8214 44.5287 27.8214 44.2981V42.3187H28.3648V44.0905C28.3648 44.3733 28.3758 44.5638 28.398 44.6621C28.4322 44.8044 28.5047 44.9167 28.6153 44.999C28.726 45.0792 28.8629 45.1193 29.0259 45.1193C29.1889 45.1193 29.3419 45.0782 29.4848 44.996C29.6277 44.9117 29.7283 44.7984 29.7867 44.656C29.8471 44.5117 29.8773 44.3031 29.8773 44.0304V42.3187H30.4207V45.5134H29.9346Z" fill="#FFF500"/>
<path d="M33.3672 44.3432L33.9015 44.4124C33.8432 44.7794 33.6932 45.0672 33.4517 45.2757C33.2122 45.4823 32.9173 45.5855 32.5671 45.5855C32.1284 45.5855 31.7752 45.4432 31.5075 45.1584C31.2418 44.8716 31.109 44.4615 31.109 43.9281C31.109 43.5831 31.1664 43.2813 31.2811 43.0226C31.3958 42.7639 31.5699 42.5704 31.8034 42.4421C32.0388 42.3117 32.2944 42.2465 32.5702 42.2465C32.9184 42.2465 33.2031 42.3348 33.4245 42.5113C33.6459 42.6857 33.7878 42.9344 33.8502 43.2573L33.3219 43.3385C33.2716 43.1239 33.182 42.9625 33.0532 42.8542C32.9264 42.7459 32.7724 42.6917 32.5913 42.6917C32.3176 42.6917 32.0952 42.79 31.9241 42.9865C31.753 43.1811 31.6675 43.4899 31.6675 43.913C31.6675 44.3422 31.75 44.654 31.9151 44.8486C32.0801 45.0431 32.2954 45.1403 32.5611 45.1403C32.7744 45.1403 32.9526 45.0752 33.0955 44.9448C33.2384 44.8145 33.3289 44.6139 33.3672 44.3432Z" fill="#FFF500"/>
<path d="M35.5529 45.029L35.6314 45.5073C35.4784 45.5394 35.3416 45.5555 35.2208 45.5555C35.0236 45.5555 34.8706 45.5244 34.7619 45.4622C34.6532 45.4 34.5768 45.3188 34.5325 45.2186C34.4882 45.1163 34.4661 44.9027 34.4661 44.5778V42.7399H34.0676V42.3187H34.4661V41.5276L35.0065 41.2027V42.3187H35.5529V42.7399H35.0065V44.6079C35.0065 44.7623 35.0155 44.8616 35.0336 44.9057C35.0537 44.9498 35.0849 44.9849 35.1272 45.011C35.1715 45.0371 35.2339 45.0501 35.3144 45.0501C35.3748 45.0501 35.4543 45.0431 35.5529 45.029Z" fill="#FFF500"/>
<path d="M36.0903 41.7261V41.1035H36.6337V41.7261H36.0903ZM36.0903 45.5134V42.3187H36.6337V45.5134H36.0903Z" fill="#FFF500"/>
<path d="M37.2616 43.916C37.2616 43.3245 37.4266 42.8863 37.7567 42.6015C38.0324 42.3649 38.3685 42.2465 38.765 42.2465C39.2058 42.2465 39.5661 42.3909 39.8458 42.6797C40.1256 42.9665 40.2655 43.3636 40.2655 43.8709C40.2655 44.282 40.2031 44.6059 40.0783 44.8425C39.9555 45.0772 39.7754 45.2597 39.5379 45.39C39.3024 45.5204 39.0448 45.5855 38.765 45.5855C38.3162 45.5855 37.9529 45.4422 37.6752 45.1554C37.3995 44.8686 37.2616 44.4555 37.2616 43.916ZM37.8201 43.916C37.8201 44.3252 37.9097 44.632 38.0888 44.8365C38.2679 45.0391 38.4933 45.1403 38.765 45.1403C39.0347 45.1403 39.2591 45.0381 39.4383 44.8335C39.6174 44.629 39.7069 44.3171 39.7069 43.898C39.7069 43.5029 39.6164 43.2041 39.4352 43.0016C39.2561 42.797 39.0327 42.6948 38.765 42.6948C38.4933 42.6948 38.2679 42.796 38.0888 42.9986C37.9097 43.2011 37.8201 43.5069 37.8201 43.916Z" fill="#FFF500"/>
<path d="M40.9055 45.5134V42.3187H41.3945V42.773C41.63 42.422 41.9701 42.2465 42.4149 42.2465C42.6082 42.2465 42.7853 42.2816 42.9463 42.3518C43.1093 42.42 43.2311 42.5103 43.3116 42.6226C43.3921 42.7349 43.4484 42.8682 43.4806 43.0226C43.5008 43.1229 43.5108 43.2984 43.5108 43.5491V45.5134H42.9674V43.5701C42.9674 43.3495 42.9463 43.1851 42.904 43.0768C42.8617 42.9665 42.7863 42.8793 42.6776 42.8151C42.5709 42.7489 42.4451 42.7158 42.3002 42.7158C42.0688 42.7158 41.8685 42.789 41.6995 42.9354C41.5324 43.0818 41.4489 43.3595 41.4489 43.7687V45.5134H40.9055Z" fill="#FFF500"/>
<path d="M48.16 45.1193C47.9587 45.2898 47.7645 45.4101 47.5773 45.4803C47.3922 45.5505 47.1929 45.5855 46.9796 45.5855C46.6274 45.5855 46.3567 45.5003 46.1675 45.3299C45.9783 45.1574 45.8837 44.9378 45.8837 44.6711C45.8837 44.5147 45.9189 44.3723 45.9894 44.2439C46.0618 44.1136 46.1554 44.0093 46.2701 43.9311C46.3869 43.8529 46.5177 43.7937 46.6626 43.7536C46.7693 43.7255 46.9303 43.6985 47.1456 43.6724C47.5844 43.6202 47.9074 43.5581 48.1147 43.4859C48.1167 43.4117 48.1177 43.3646 48.1177 43.3445C48.1177 43.1239 48.0664 42.9685 47.9638 42.8782C47.8249 42.7559 47.6186 42.6948 47.3449 42.6948C47.0893 42.6948 46.9001 42.7399 46.7773 42.8301C46.6566 42.9184 46.567 43.0758 46.5086 43.3024L45.9773 43.2302C46.0256 43.0036 46.1051 42.8211 46.2158 42.6827C46.3265 42.5423 46.4865 42.4351 46.6958 42.3609C46.9051 42.2846 47.1476 42.2465 47.4234 42.2465C47.6971 42.2465 47.9195 42.2786 48.0906 42.3428C48.2616 42.407 48.3874 42.4882 48.4679 42.5865C48.5484 42.6827 48.6048 42.8051 48.637 42.9535C48.6551 43.0457 48.6642 43.2121 48.6642 43.4528V44.1747C48.6642 44.6781 48.6752 44.997 48.6974 45.1313C48.7215 45.2637 48.7678 45.391 48.8362 45.5134H48.2687C48.2123 45.4011 48.1761 45.2697 48.16 45.1193ZM48.1147 43.91C47.9175 43.9902 47.6216 44.0584 47.2271 44.1146C47.0037 44.1467 46.8457 44.1828 46.7532 44.2229C46.6606 44.263 46.5891 44.3221 46.5388 44.4004C46.4885 44.4766 46.4633 44.5618 46.4633 44.656C46.4633 44.8004 46.5177 44.9208 46.6264 45.017C46.7371 45.1133 46.8981 45.1614 47.1094 45.1614C47.3187 45.1614 47.5049 45.1163 47.6679 45.026C47.8309 44.9338 47.9507 44.8085 48.0272 44.65C48.0855 44.5277 48.1147 44.3472 48.1147 44.1086V43.91Z" fill="#FFF500"/>
<path d="M49.5095 45.5134V42.3187H49.9985V42.773C50.234 42.422 50.5741 42.2465 51.0189 42.2465C51.2121 42.2465 51.3893 42.2816 51.5503 42.3518C51.7133 42.42 51.835 42.5103 51.9156 42.6226C51.9961 42.7349 52.0524 42.8682 52.0846 43.0226C52.1047 43.1229 52.1148 43.2984 52.1148 43.5491V45.5134H51.5714V43.5701C51.5714 43.3495 51.5503 43.1851 51.508 43.0768C51.4657 42.9665 51.3903 42.8793 51.2816 42.8151C51.1749 42.7489 51.0491 42.7158 50.9042 42.7158C50.6728 42.7158 50.4725 42.789 50.3034 42.9354C50.1364 43.0818 50.0529 43.3595 50.0529 43.7687V45.5134H49.5095Z" fill="#FFF500"/>
<path d="M55.0311 45.5134V45.1103C54.8278 45.4271 54.529 45.5855 54.1345 45.5855C53.8789 45.5855 53.6434 45.5154 53.428 45.375C53.2147 45.2346 53.0487 45.0391 52.9299 44.7884C52.8132 44.5357 52.7548 44.2459 52.7548 43.9191C52.7548 43.6002 52.8082 43.3114 52.9148 43.0527C53.0215 42.792 53.1815 42.5925 53.3948 42.4541C53.6082 42.3157 53.8467 42.2465 54.1103 42.2465C54.3035 42.2465 54.4756 42.2877 54.6266 42.3699C54.7775 42.4501 54.9003 42.5554 54.9949 42.6857V41.1035H55.5353V45.5134H55.0311ZM53.3133 43.9191C53.3133 44.3282 53.3999 44.634 53.573 44.8365C53.746 45.0391 53.9503 45.1403 54.1858 45.1403C54.4233 45.1403 54.6246 45.0441 54.7896 44.8516C54.9566 44.657 55.0402 44.3612 55.0402 43.9642C55.0402 43.527 54.9556 43.2061 54.7866 43.0016C54.6175 42.797 54.4092 42.6948 54.1616 42.6948C53.9201 42.6948 53.7179 42.793 53.5548 42.9895C53.3938 43.1861 53.3133 43.4959 53.3133 43.9191Z" fill="#FFF500"/>
<path d="M59.1942 45.5134V41.6239H57.7361V41.1035H61.2441V41.6239H59.7799V45.5134H59.1942Z" fill="#FFF500"/>
<path d="M61.543 45.5134V42.3187H62.032V42.803C62.1568 42.5764 62.2715 42.427 62.3762 42.3548C62.4829 42.2826 62.5996 42.2465 62.7264 42.2465C62.9095 42.2465 63.0957 42.3047 63.2849 42.421L63.0977 42.9234C62.9649 42.8452 62.8321 42.8061 62.6992 42.8061C62.5805 42.8061 62.4738 42.8422 62.3792 42.9143C62.2846 42.9845 62.2172 43.0828 62.1769 43.2091C62.1166 43.4017 62.0864 43.6122 62.0864 43.8408V45.5134H61.543Z" fill="#FFF500"/>
<path d="M65.7001 45.1193C65.4988 45.2898 65.3046 45.4101 65.1174 45.4803C64.9322 45.5505 64.733 45.5855 64.5196 45.5855C64.1674 45.5855 63.8967 45.5003 63.7076 45.3299C63.5184 45.1574 63.4238 44.9378 63.4238 44.6711C63.4238 44.5147 63.459 44.3723 63.5294 44.2439C63.6019 44.1136 63.6955 44.0093 63.8102 43.9311C63.9269 43.8529 64.0577 43.7937 64.2027 43.7536C64.3093 43.7255 64.4703 43.6985 64.6857 43.6724C65.1244 43.6202 65.4475 43.5581 65.6548 43.4859C65.6568 43.4117 65.6578 43.3646 65.6578 43.3445C65.6578 43.1239 65.6065 42.9685 65.5038 42.8782C65.3649 42.7559 65.1587 42.6948 64.8849 42.6948C64.6293 42.6948 64.4401 42.7399 64.3174 42.8301C64.1966 42.9184 64.1071 43.0758 64.0487 43.3024L63.5174 43.2302C63.5657 43.0036 63.6452 42.8211 63.7559 42.6827C63.8665 42.5423 64.0266 42.4351 64.2359 42.3609C64.4452 42.2846 64.6877 42.2465 64.9634 42.2465C65.2371 42.2465 65.4595 42.2786 65.6306 42.3428C65.8017 42.407 65.9275 42.4882 66.008 42.5865C66.0885 42.6827 66.1448 42.8051 66.177 42.9535C66.1952 43.0457 66.2042 43.2121 66.2042 43.4528V44.1747C66.2042 44.6781 66.2153 44.997 66.2374 45.1313C66.2616 45.2637 66.3079 45.391 66.3763 45.5134H65.8087C65.7524 45.4011 65.7162 45.2697 65.7001 45.1193ZM65.6548 43.91C65.4575 43.9902 65.1617 44.0584 64.7672 44.1146C64.5438 44.1467 64.3858 44.1828 64.2932 44.2229C64.2006 44.263 64.1292 44.3221 64.0789 44.4004C64.0286 44.4766 64.0034 44.5618 64.0034 44.656C64.0034 44.8004 64.0577 44.9208 64.1664 45.017C64.2771 45.1133 64.4381 45.1614 64.6495 45.1614C64.8588 45.1614 65.0449 45.1163 65.208 45.026C65.371 44.9338 65.4907 44.8085 65.5672 44.65C65.6256 44.5277 65.6548 44.3472 65.6548 44.1086V43.91Z" fill="#FFF500"/>
<path d="M69.1296 45.5134V45.1103C68.9263 45.4271 68.6274 45.5855 68.2329 45.5855C67.9773 45.5855 67.7419 45.5154 67.5265 45.375C67.3132 45.2346 67.1471 45.0391 67.0284 44.7884C66.9117 44.5357 66.8533 44.2459 66.8533 43.9191C66.8533 43.6002 66.9066 43.3114 67.0133 43.0527C67.12 42.792 67.28 42.5925 67.4933 42.4541C67.7066 42.3157 67.9451 42.2465 68.2088 42.2465C68.402 42.2465 68.5741 42.2877 68.725 42.3699C68.876 42.4501 68.9988 42.5554 69.0933 42.6857V41.1035H69.6337V45.5134H69.1296ZM67.4118 43.9191C67.4118 44.3282 67.4983 44.634 67.6714 44.8365C67.8445 45.0391 68.0488 45.1403 68.2843 45.1403C68.5218 45.1403 68.723 45.0441 68.8881 44.8516C69.0551 44.657 69.1386 44.3612 69.1386 43.9642C69.1386 43.527 69.0541 43.2061 68.885 43.0016C68.716 42.797 68.5077 42.6948 68.2601 42.6948C68.0186 42.6948 67.8163 42.793 67.6533 42.9895C67.4923 43.1861 67.4118 43.4959 67.4118 43.9191Z" fill="#FFF500"/>
<path d="M72.6859 44.4846L73.2474 44.5538C73.1589 44.8806 72.9948 45.1343 72.7553 45.3148C72.5158 45.4953 72.2099 45.5855 71.8376 45.5855C71.3686 45.5855 70.9963 45.4422 70.7206 45.1554C70.4468 44.8666 70.31 44.4625 70.31 43.9431C70.31 43.4057 70.4488 42.9885 70.7266 42.6917C71.0043 42.3949 71.3646 42.2465 71.8074 42.2465C72.2361 42.2465 72.5863 42.3919 72.858 42.6827C73.1297 42.9735 73.2655 43.3826 73.2655 43.91C73.2655 43.9421 73.2645 43.9902 73.2625 44.0544H70.8715C70.8916 44.4054 70.9913 44.6741 71.1704 44.8606C71.3495 45.0471 71.5729 45.1403 71.8406 45.1403C72.0398 45.1403 72.2099 45.0882 72.3508 44.9839C72.4917 44.8796 72.6034 44.7132 72.6859 44.4846ZM70.9017 43.6092H72.6919C72.6678 43.3405 72.5993 43.139 72.4866 43.0046C72.3135 42.796 72.0891 42.6917 71.8134 42.6917C71.5638 42.6917 71.3535 42.775 71.1824 42.9414C71.0134 43.1079 70.9198 43.3305 70.9017 43.6092Z" fill="#FFF500"/>
<path d="M78.8808 43.9672L79.4664 44.1146C79.3437 44.5939 79.1223 44.9599 78.8023 45.2125C78.4843 45.4632 78.0948 45.5886 77.6339 45.5886C77.1569 45.5886 76.7685 45.4923 76.4686 45.2998C76.1708 45.1053 75.9433 44.8245 75.7863 44.4575C75.6314 44.0905 75.5539 43.6965 75.5539 43.2753C75.5539 42.8161 75.6414 42.416 75.8165 42.0751C75.9936 41.7322 76.2442 41.4725 76.5682 41.296C76.8943 41.1175 77.2525 41.0283 77.643 41.0283C78.0858 41.0283 78.4581 41.1406 78.76 41.3652C79.0619 41.5898 79.2722 41.9056 79.391 42.3127L78.8143 42.4481C78.7117 42.1272 78.5628 41.8936 78.3675 41.7472C78.1723 41.6008 77.9268 41.5276 77.6309 41.5276C77.2908 41.5276 77.006 41.6088 76.7766 41.7713C76.5491 41.9337 76.3891 42.1523 76.2965 42.427C76.204 42.6998 76.1577 42.9815 76.1577 43.2723C76.1577 43.6473 76.212 43.9752 76.3207 44.256C76.4314 44.5347 76.6025 44.7433 76.8339 44.8817C77.0654 45.02 77.3159 45.0892 77.5856 45.0892C77.9137 45.0892 78.1914 44.995 78.4189 44.8064C78.6463 44.6179 78.8003 44.3382 78.8808 43.9672Z" fill="#FFF500"/>
<path d="M79.9193 43.916C79.9193 43.3245 80.0843 42.8863 80.4144 42.6015C80.6901 42.3649 81.0262 42.2465 81.4227 42.2465C81.8635 42.2465 82.2237 42.3909 82.5035 42.6797C82.7832 42.9665 82.9231 43.3636 82.9231 43.8709C82.9231 44.282 82.8607 44.6059 82.7359 44.8425C82.6132 45.0772 82.433 45.2597 82.1956 45.39C81.9601 45.5204 81.7025 45.5855 81.4227 45.5855C80.9739 45.5855 80.6106 45.4422 80.3329 45.1554C80.0571 44.8686 79.9193 44.4555 79.9193 43.916ZM80.4778 43.916C80.4778 44.3252 80.5673 44.632 80.7465 44.8365C80.9256 45.0391 81.151 45.1403 81.4227 45.1403C81.6924 45.1403 81.9168 45.0381 82.0959 44.8335C82.2751 44.629 82.3646 44.3171 82.3646 43.898C82.3646 43.5029 82.274 43.2041 82.0929 43.0016C81.9138 42.797 81.6904 42.6948 81.4227 42.6948C81.151 42.6948 80.9256 42.796 80.7465 42.9986C80.5673 43.2011 80.4778 43.5069 80.4778 43.916Z" fill="#FFF500"/>
<path d="M83.7171 45.5134V44.8967H84.336V45.5134H83.7171Z" fill="#FFF500"/>
</g>
<path id="path16" fill-rule="evenodd" clip-rule="evenodd" d="M66.991 13.9635L71.2968 0.184814H77.1157L72.7923 13.9173L66.991 13.9635Z" fill="#FFF500"/>
</g>
</svg>
