<svg width="40" height="40" viewBox="0 0 40 40" fill="none" xmlns="http://www.w3.org/2000/svg">
<g id="Telegram" clip-path="url(#clip0_52_490)">
<g id="Layer 2">
<g id="Layer 2_2">
<g id="Telegram_2">
<path id="Vector" d="M1.66675 20C1.66675 6.66666 6.66675 1.66666 20.0001 1.66666C33.3334 1.66666 38.3334 6.66666 38.3334 20C38.3334 33.3333 33.3334 38.3333 20.0001 38.3333C6.66675 38.3333 1.66675 33.3333 1.66675 20Z" fill="#00ABE8"/>
<path id="Vector_2" fill-rule="evenodd" clip-rule="evenodd" d="M28.3334 11.6667L10.4168 19.2333C10.2868 19.2853 10.1754 19.375 10.097 19.4908C10.0185 19.6067 9.97656 19.7434 9.97656 19.8833C9.97656 20.0233 10.0185 20.16 10.097 20.2759C10.1754 20.3917 10.2868 20.4814 10.4168 20.5333L13.7501 21.5833C14.2775 21.7462 14.835 21.7873 15.3806 21.7036C15.9262 21.6199 16.4458 21.4135 16.9001 21.1L24.4501 15.8833C24.504 15.8555 24.5658 15.8469 24.6253 15.8589C24.6848 15.871 24.7384 15.903 24.7773 15.9496C24.8161 15.9962 24.8379 16.0547 24.839 16.1154C24.8401 16.1761 24.8205 16.2353 24.7834 16.2833L19.0001 21.8167C18.853 21.9611 18.7396 22.1361 18.6679 22.3294C18.5963 22.5227 18.5683 22.7294 18.5858 22.9348C18.6033 23.1402 18.6659 23.3392 18.7692 23.5176C18.8726 23.6959 19.014 23.8493 19.1834 23.9667L25.4001 28.1667C25.5944 28.2946 25.8175 28.3722 26.0493 28.3922C26.2811 28.4123 26.5142 28.3743 26.7276 28.2817C26.941 28.189 27.128 28.0447 27.2716 27.8616C27.4152 27.6786 27.5109 27.4627 27.5501 27.2333L30.0001 13C30.0378 12.785 30.0171 12.5639 29.94 12.3597C29.8628 12.1555 29.7322 11.9759 29.5618 11.8395C29.3914 11.7032 29.1874 11.6152 28.9713 11.5848C28.7552 11.5544 28.5349 11.5827 28.3334 11.6667Z" fill="white"/>
</g>
</g>
</g>
</g>
<defs>
<clipPath id="clip0_52_490">
<rect width="40" height="40" fill="white"/>
</clipPath>
</defs>
</svg>
