<svg width="40" height="40" viewBox="0 0 40 40" fill="none" xmlns="http://www.w3.org/2000/svg">
<g id="Whatups" clip-path="url(#clip0_52_497)">
<g id="Layer 2">
<g id="Layer 2_2">
<g id="Whatups_2">
<path id="Vector" d="M1.66675 20C1.66675 6.66666 6.66675 1.66666 20.0001 1.66666C33.3334 1.66666 38.3334 6.66666 38.3334 20C38.3334 33.3333 33.3334 38.3333 20.0001 38.3333C6.66675 38.3333 1.66675 33.3333 1.66675 20Z" fill="#00CD4C"/>
<path id="Vector_2" d="M9.8999 30.2667L10.6999 27.8833C10.9666 27.1167 11.1832 26.3333 11.4832 25.5833C11.5651 25.4234 11.6079 25.2463 11.6079 25.0667C11.6079 24.887 11.5651 24.7099 11.4832 24.55C10.5356 22.8006 10.1489 20.8021 10.3755 18.8254C10.6021 16.8488 11.431 14.9896 12.7499 13.5C13.7074 12.4085 14.9023 11.551 16.2429 10.9934C17.5835 10.4358 19.0341 10.1929 20.4832 10.2833C22.6796 10.3558 24.7803 11.1996 26.4166 12.6667C27.9639 14.0134 29.0436 15.8168 29.4999 17.8167C29.881 19.434 29.835 21.1225 29.3666 22.7167C28.7938 24.7199 27.5751 26.4778 25.8999 27.7167C24.7908 28.5805 23.5044 29.1883 22.1329 29.4966C20.7614 29.8049 19.3386 29.8061 17.9666 29.5C17.0986 29.3254 16.2615 29.0221 15.4832 28.6C15.4233 28.5718 15.3578 28.5572 15.2916 28.5572C15.2253 28.5572 15.1599 28.5718 15.0999 28.6L10.6332 30L9.8999 30.2667ZM12.4332 27.75H12.5832L15.3832 26.8667C15.4805 26.8337 15.586 26.8337 15.6832 26.8667C16.0832 27.0667 16.4666 27.3167 16.8832 27.4833C18.5438 28.2127 20.4075 28.3365 22.1499 27.8333C23.1748 27.5596 24.1346 27.0839 24.9732 26.4343C25.8118 25.7846 26.5121 24.974 27.0332 24.05C28.0674 22.2499 28.3724 20.122 27.8857 18.1039C27.399 16.0858 26.1575 14.3308 24.4166 13.2C22.8403 12.1774 20.9575 11.7346 19.0906 11.9474C17.2237 12.1602 15.4889 13.0155 14.1832 14.3667C13.1145 15.4581 12.385 16.8359 12.0832 18.3333C11.846 19.36 11.8197 20.4241 12.0059 21.4612C12.1922 22.4982 12.587 23.4867 13.1666 24.3667C13.2607 24.5226 13.3104 24.7012 13.3104 24.8833C13.3104 25.0655 13.2607 25.2441 13.1666 25.4C12.9499 26.1333 12.7166 26.9333 12.4332 27.75Z" fill="white"/>
<path id="Vector_3" d="M25.0001 22.8167C24.9899 23.1715 24.8797 23.5162 24.6822 23.8111C24.4846 24.1059 24.2077 24.339 23.8834 24.4833C23.5468 24.6673 23.1743 24.776 22.7916 24.8019C22.4089 24.8278 22.0251 24.7703 21.6668 24.6333C20.9805 24.3844 20.3074 24.1007 19.6501 23.7833C18.8009 23.3335 18.0434 22.7286 17.4168 22C16.7058 21.218 16.0955 20.3502 15.6001 19.4167C15.2285 18.7697 15.0547 18.028 15.1001 17.2833C15.1344 16.8988 15.2502 16.526 15.4399 16.1897C15.6296 15.8535 15.8887 15.5615 16.2001 15.3333C16.3437 15.2361 16.5104 15.1786 16.6834 15.1667C16.8942 15.1496 17.106 15.1496 17.3168 15.1667C17.3938 15.1764 17.4664 15.2084 17.5256 15.2587C17.5848 15.309 17.6281 15.3755 17.6501 15.45C17.8168 15.8333 17.9501 16.2167 18.1001 16.6167C18.2501 17.0167 18.2834 17.15 18.4001 17.4C18.5027 17.5377 18.5523 17.7077 18.5401 17.879C18.5279 18.0503 18.4545 18.2116 18.3334 18.3333C18.173 18.5429 17.9945 18.7381 17.8001 18.9167C17.729 18.9727 17.6811 19.0531 17.6657 19.1424C17.6503 19.2316 17.6685 19.3234 17.7168 19.4C18.168 20.2195 18.767 20.9484 19.4834 21.55C19.997 21.9352 20.557 22.2544 21.1501 22.5C21.2115 22.5562 21.2918 22.5874 21.3751 22.5874C21.4584 22.5874 21.5387 22.5562 21.6001 22.5L22.4334 21.55C22.6168 21.35 22.7001 21.3 22.9334 21.4167L24.9834 22.4833C25.0112 22.534 25.0271 22.5904 25.0299 22.6481C25.0328 22.7058 25.0226 22.7634 25.0001 22.8167Z" fill="white"/>
</g>
</g>
</g>
</g>
<defs>
<clipPath id="clip0_52_497">
<rect width="40" height="40" fill="white"/>
</clipPath>
</defs>
</svg>
