<svg xmlns="http://www.w3.org/2000/svg" width="24" height="24" viewBox="0 0 24 24" fill="none">
  <path fill-rule="evenodd" clip-rule="evenodd" d="M10.8559 13.1441C9.6859 11.9741 8.8039 10.6641 8.2179 9.33512C8.0939 9.05412 8.1669 8.72512 8.3839 8.50812L9.2029 7.69012C9.8739 7.01912 9.8739 6.07012 9.2879 5.48412L8.1139 4.31012C7.3329 3.52912 6.0669 3.52912 5.2859 4.31012L4.6339 4.96212C3.8929 5.70312 3.5839 6.77212 3.7839 7.83212C4.2779 10.4451 5.7959 13.3061 8.2449 15.7551C10.6939 18.2041 13.5549 19.7221 16.1679 20.2161C17.2279 20.4161 18.2969 20.1071 19.0379 19.3661L19.6889 18.7151C20.4699 17.9341 20.4699 16.6681 19.6889 15.8871L18.5159 14.7141C17.9299 14.1281 16.9799 14.1281 16.3949 14.7141L15.4919 15.6181C15.2749 15.8351 14.9459 15.9081 14.6649 15.7841C13.3359 15.1971 12.0259 14.3141 10.8559 13.1441Z" stroke="#0085FF" stroke-width="1.5" stroke-linecap="round" stroke-linejoin="round"/>
</svg>
