<svg width="48" height="48" viewBox="0 0 48 48" fill="none" xmlns="http://www.w3.org/2000/svg">
<rect width="48" height="48" rx="24" fill="#0085FF"/>
<path fill-rule="evenodd" clip-rule="evenodd" d="M29.5024 29.3614C30.5498 29.3614 31.3998 28.514 31.4031 27.4666V27.4666V27.4666C31.4025 26.9336 31.1897 26.4228 30.8119 26.047L29.5524 24.7865V21.0419C29.5521 19.5701 28.9668 18.1587 27.9254 17.1186C26.884 16.0785 25.4719 15.495 24.0001 15.4966V15.4966C20.9385 15.4982 18.4573 17.9803 18.4568 21.0419V24.7835L17.1972 26.044C16.8191 26.4197 16.606 26.9305 16.605 27.4636V27.4636V27.4636C16.6083 28.511 17.4583 29.3584 18.5058 29.3584L29.5024 29.3614Z" stroke="white" stroke-width="1.5" stroke-linecap="round" stroke-linejoin="round"/>
<path d="M22.5205 32.5036H25.4787" stroke="white" stroke-width="1.5" stroke-linecap="round" stroke-linejoin="round"/>
</svg>
