<svg width="473" height="293" viewBox="0 0 473 293" fill="none" xmlns="http://www.w3.org/2000/svg">
<g clip-path="url(#clip0_89_2669)">
<path d="M391.589 284.157H59.7516C59.7516 284.157 -9.56726 228.246 67.1757 181.996C143.924 135.742 147.832 121.365 148.513 103.495C149.189 85.6255 148.582 3.56296 213.144 0.16507C277.701 -3.23373 288.946 46.8336 294.817 68.8461C300.688 90.8585 323.265 130.859 363.318 142.08C401.729 152.842 452.186 216.117 391.589 284.157Z" fill="#EFF2F6"/>
<path d="M114.308 265.739L103.39 267.172C102.26 267.689 101.032 267.956 99.7887 267.956H83.199C78.8821 267.956 74.968 265.418 73.2037 261.476L71.5377 259.466C70.847 257.923 70.4902 256.251 70.4902 254.561C70.4902 250.839 72.2157 247.328 75.1608 245.056L78.4438 242.523L107.08 250.947L114.308 265.739Z" fill="#B7CAE5"/>
<path d="M95.9943 273.55L75.9541 269.79V266.879L95.9943 270.638C97.8468 270.638 99.5962 269.655 100.56 268.073L102.107 265.535L104.592 267.05L103.045 269.588C101.557 272.032 98.8551 273.55 95.9943 273.55Z" fill="#B7CAE5"/>
<path d="M473 283.17C473 288.599 367.117 293 236.501 293C105.885 293 0 288.599 0 283.17C0 277.742 105.885 273.341 236.501 273.341C367.117 273.341 473 277.742 473 283.17Z" fill="#B7CAE5"/>
<path d="M40.9153 284.157H131.502V239.778H40.9153V284.157Z" fill="#68B7FF"/>
<path d="M40.8521 284.157H97.2441V239.778H40.8521V284.157Z" fill="#0085FF"/>
<path d="M40.9153 255.592H131.522V239.778H40.9153V255.592Z" fill="#68B7FF"/>
<path d="M97.2441 258.114H118.715V255.592H97.2441V258.114Z" fill="#91CAFF"/>
<path d="M40.9153 258.114H97.2442V255.592H40.9153V258.114Z" fill="#4EAAFF"/>
<path d="M97.2446 255.592H40.9153V239.778H97.2446V255.592Z" fill="#0085FF"/>
<path d="M150.758 239.967H60.1719V195.588H150.758V239.967Z" fill="#68B7FF"/>
<path d="M60.1084 239.967H116.501V195.588H60.1084V239.967Z" fill="#0085FF"/>
<path d="M93.0808 195.588H83.5283V208.074H93.0808V195.588Z" fill="#68B7FF"/>
<path d="M139.972 195.588H130.42V208.074H139.972V195.588Z" fill="#B6DCFF"/>
<path d="M118.752 284.157H171.641V249.341H118.752V284.157Z" fill="#68B7FF"/>
<path d="M118.715 284.157H151.639V249.341H118.715V284.157Z" fill="#0085FF"/>
<path d="M118.752 261.747H171.653V249.341H118.752V261.747Z" fill="#68B7FF"/>
<path d="M171.641 263.725H171.653V261.747H171.641V263.725Z" fill="#ECB95F"/>
<path d="M151.639 263.725H171.641V261.747H151.639V263.725Z" fill="#91CAFF"/>
<path d="M118.752 263.725H151.64V261.747H118.752V263.725Z" fill="#4EAAFF"/>
<path d="M151.64 261.747H118.752V249.341H151.64V261.747Z" fill="#0085FF"/>
<path d="M73.4487 195.588H126.337V160.771H73.4487V195.588Z" fill="#68B7FF"/>
<path d="M73.4119 195.588H106.337V160.771H73.4119V195.588Z" fill="#0085FF"/>
<path d="M126.35 173.178H73.4487V160.771H126.35V173.178Z" fill="#68B7FF"/>
<path d="M126.337 175.156H126.35V173.178H126.337V175.156Z" fill="#ECB95F"/>
<path d="M106.337 175.156H126.337V173.178H106.337V175.156Z" fill="#91CAFF"/>
<path d="M73.4487 175.156H106.336V173.178H73.4487V175.156Z" fill="#4EAAFF"/>
<path d="M106.336 173.178H73.4487V160.771H106.336V173.178Z" fill="#0085FF"/>
<path d="M325.99 171.757H238.754C237.51 171.757 236.501 170.748 236.501 169.503V44.7592C236.501 43.5141 237.51 42.5053 238.754 42.5053H325.99C327.234 42.5053 328.243 43.5141 328.243 44.7592V169.503C328.243 170.748 327.234 171.757 325.99 171.757Z" fill="#C8E4FF"/>
<path d="M319.098 68.9014H268.352C267.331 68.9014 266.503 68.0729 266.503 67.051V66.5623C266.503 65.5404 267.331 64.7119 268.352 64.7119H319.098C320.119 64.7119 320.947 65.5404 320.947 66.5623V67.051C320.947 68.0729 320.119 68.9014 319.098 68.9014Z" fill="#A2CDF5"/>
<path d="M319.098 94.1477H268.352C267.331 94.1477 266.503 93.3192 266.503 92.2973V91.8091C266.503 90.7868 267.331 89.9587 268.352 89.9587H319.098C320.119 89.9587 320.947 90.7868 320.947 91.8091V92.2973C320.947 93.3192 320.119 94.1477 319.098 94.1477Z" fill="#A2CDF5"/>
<path d="M319.098 119.394H268.352C267.331 119.394 266.503 118.566 266.503 117.544V117.055C266.503 116.033 267.331 115.205 268.352 115.205H319.098C320.119 115.205 320.947 116.033 320.947 117.055V117.544C320.947 118.566 320.119 119.394 319.098 119.394Z" fill="#A2CDF5"/>
<path d="M319.098 144.64H268.352C267.331 144.64 266.503 143.812 266.503 142.79V142.302C266.503 141.279 267.331 140.451 268.352 140.451H319.098C320.119 140.451 320.947 141.279 320.947 142.302V142.79C320.947 143.812 320.119 144.64 319.098 144.64Z" fill="#A2CDF5"/>
<path d="M260.565 67.2953C260.565 64.1476 258.015 61.5958 254.869 61.5958C251.723 61.5958 249.173 64.1476 249.173 67.2953C249.173 70.443 251.723 72.9944 254.869 72.9944C258.015 72.9944 260.565 70.443 260.565 67.2953Z" fill="#ECF3FE"/>
<path d="M252.597 74.0005C252.203 74.0005 251.83 73.8179 251.589 73.5046L247.37 68.0364C246.94 67.4788 247.042 66.6777 247.6 66.2473C248.157 65.8172 248.958 65.9204 249.388 66.4776L252.552 70.5787L260.317 59.5754C260.724 58.9993 261.519 58.8632 262.094 59.2694C262.67 59.6755 262.806 60.472 262.4 61.0472L253.639 73.4609C253.406 73.7913 253.029 73.9915 252.624 74.0005H252.597Z" fill="#0085FF"/>
<path d="M260.565 92.83C260.565 89.6823 258.015 87.1309 254.869 87.1309C251.723 87.1309 249.173 89.6823 249.173 92.83C249.173 95.9777 251.723 98.5291 254.869 98.5291C258.015 98.5291 260.565 95.9777 260.565 92.83Z" fill="#ECF3FE"/>
<path d="M252.597 99.5352C252.203 99.5352 251.83 99.3526 251.589 99.0393L247.37 93.5715C246.94 93.0134 247.042 92.2124 247.6 91.7819C248.157 91.3519 248.958 91.4547 249.388 92.0123L252.552 96.1129L260.317 85.1105C260.724 84.534 261.519 84.3979 262.094 84.804C262.67 85.2106 262.806 86.0067 262.4 86.5818L253.639 98.9956C253.406 99.3264 253.029 99.5266 252.624 99.5352H252.597Z" fill="#0085FF"/>
<path d="M260.565 118.076C260.565 114.929 258.015 112.377 254.869 112.377C251.723 112.377 249.173 114.929 249.173 118.076C249.173 121.224 251.723 123.775 254.869 123.775C258.015 123.775 260.565 121.224 260.565 118.076Z" fill="#ECF3FE"/>
<path d="M252.597 124.782C252.203 124.782 251.83 124.599 251.589 124.286L247.37 118.818C246.94 118.26 247.042 117.459 247.6 117.028C248.157 116.598 248.958 116.701 249.388 117.259L252.552 121.36L260.317 110.357C260.724 109.781 261.519 109.645 262.094 110.05C262.67 110.457 262.806 111.253 262.4 111.828L253.639 124.242C253.406 124.573 253.029 124.773 252.624 124.782L252.597 124.782Z" fill="#0085FF"/>
<path d="M260.565 143.322C260.565 140.175 258.015 137.623 254.869 137.623C251.723 137.623 249.173 140.175 249.173 143.322C249.173 146.47 251.723 149.022 254.869 149.022C258.015 149.022 260.565 146.47 260.565 143.322Z" fill="#ECF3FE"/>
<path d="M252.597 150.028C252.203 150.028 251.83 149.845 251.589 149.532L247.37 144.064C246.94 143.507 247.042 142.705 247.6 142.275C248.157 141.845 248.958 141.948 249.388 142.505L252.552 146.606L260.317 135.603C260.724 135.027 261.519 134.891 262.094 135.297C262.67 135.703 262.806 136.499 262.4 137.075L253.639 149.488C253.406 149.819 253.029 150.019 252.624 150.028H252.597Z" fill="#0085FF"/>
<path d="M411.294 277.326C411.294 273.553 408.237 270.495 404.467 270.495C400.696 270.495 397.639 273.553 397.639 277.326C397.639 281.099 400.696 284.157 404.467 284.157C408.237 284.157 411.294 281.099 411.294 277.326Z" fill="#1F3A6F"/>
<path d="M415.833 268.954H271.884V275.973H415.833V268.954Z" fill="#5693DB"/>
<path d="M331.834 271.506C330.426 271.506 329.285 270.363 329.285 268.954V170.352C329.285 163.619 323.811 158.142 317.082 158.142H289.186C282.457 158.142 276.984 163.619 276.984 170.352V268.954C276.984 270.363 275.842 271.506 274.434 271.506C273.026 271.506 271.884 270.363 271.884 268.954V170.352C271.884 160.806 279.646 153.04 289.186 153.04H317.082C326.623 153.04 334.384 160.806 334.384 170.352V268.954C334.384 270.363 333.243 271.506 331.834 271.506Z" fill="#5693DB"/>
<path d="M353.709 268.954H271.884V275.973H353.709V268.954Z" fill="#3177BC"/>
<path d="M291.187 277.326C291.187 273.553 288.13 270.495 284.359 270.495C280.588 270.495 277.531 273.553 277.531 277.326C277.531 281.099 280.588 284.157 284.359 284.157C288.13 284.157 291.187 281.099 291.187 277.326Z" fill="#1F3A6F"/>
<path d="M288.61 277.326C288.61 274.977 286.706 273.073 284.359 273.073C282.012 273.073 280.109 274.977 280.109 277.326C280.109 279.674 282.012 281.578 284.359 281.578C286.706 281.578 288.61 279.674 288.61 277.326Z" fill="#5693DB"/>
<path d="M286.219 277.326C286.219 276.298 285.387 275.465 284.359 275.465C283.332 275.465 282.499 276.298 282.499 277.326C282.499 278.353 283.332 279.187 284.359 279.187C285.387 279.187 286.219 278.353 286.219 277.326Z" fill="#B7CAE5"/>
<path d="M347.916 277.326C347.916 273.553 344.859 270.495 341.089 270.495C337.318 270.495 334.261 273.553 334.261 277.326C334.261 281.099 337.318 284.157 341.089 284.157C344.859 284.157 347.916 281.099 347.916 277.326Z" fill="#1F3A6F"/>
<path d="M345.339 277.326C345.339 274.977 343.436 273.073 341.089 273.073C338.741 273.073 336.839 274.977 336.839 277.326C336.839 279.674 338.741 281.578 341.089 281.578C343.436 281.578 345.339 279.674 345.339 277.326Z" fill="#5693DB"/>
<path d="M342.949 277.326C342.949 276.298 342.116 275.465 341.089 275.465C340.062 275.465 339.229 276.298 339.229 277.326C339.229 278.353 340.062 279.187 341.089 279.187C342.116 279.187 342.949 278.353 342.949 277.326Z" fill="#B7CAE5"/>
<path d="M364.776 268.954H274.19V224.575H364.776V268.954Z" fill="#68B7FF"/>
<path d="M274.127 268.954H330.519V224.575H274.127V268.954Z" fill="#0085FF"/>
<path d="M307.1 224.575H297.547V237.061H307.1V224.575Z" fill="#68B7FF"/>
<path d="M353.991 224.575H344.438V237.061H353.991V224.575Z" fill="#FFC76C"/>
<path d="M412.159 268.954H334.315V230.818H412.159V268.954Z" fill="#68B7FF"/>
<path d="M334.261 268.954H382.72V230.818H334.261V268.954Z" fill="#0085FF"/>
<path d="M362.595 230.818H354.387V241.547H362.595V230.818Z" fill="#68B7FF"/>
<path d="M402.89 230.818H394.681V241.547H402.89V230.818Z" fill="#B6DCFF"/>
<path d="M282.536 224.574H335.425V189.758H282.536V224.574Z" fill="#68B7FF"/>
<path d="M282.499 224.574H315.424V189.758H282.499V224.574Z" fill="#0085FF"/>
<path d="M282.536 202.165H335.437V189.758H282.536V202.165Z" fill="#68B7FF"/>
<path d="M335.425 204.143H335.437V202.164H335.425V204.143Z" fill="#ECB95F"/>
<path d="M315.424 204.143H335.425V202.164H315.424V204.143Z" fill="#91CAFF"/>
<path d="M282.536 204.143H315.424V202.164H282.536V204.143Z" fill="#4EAAFF"/>
<path d="M315.424 202.165H282.536V189.758H315.424V202.165Z" fill="#0085FF"/>
<path d="M340.467 230.818H393.356V196.001H340.467V230.818Z" fill="#68B7FF"/>
<path d="M340.43 230.818H373.355V196.001H340.43V230.818Z" fill="#0085FF"/>
<path d="M340.467 208.407H393.368V196.001H340.467V208.407Z" fill="#68B7FF"/>
<path d="M393.356 210.386H393.368V208.407H393.356V210.386Z" fill="#ECB95F"/>
<path d="M373.354 210.386H393.356V208.407H373.354V210.386Z" fill="#91CAFF"/>
<path d="M340.467 210.386H373.354V208.407H340.467V210.386Z" fill="#4EAAFF"/>
<path d="M373.355 208.407H340.467V196.001H373.355V208.407Z" fill="#0085FF"/>
<path d="M328.012 195.961H380.901V161.144H328.012V195.961Z" fill="#68B7FF"/>
<path d="M327.976 195.961H360.9V161.144H327.976V195.961Z" fill="#0085FF"/>
<path d="M328.012 173.551H380.913V161.144H328.012V173.551Z" fill="#68B7FF"/>
<path d="M380.901 175.53H380.913V173.551H380.901V175.53Z" fill="#ECB95F"/>
<path d="M360.9 175.53H380.901V173.551H360.9V175.53Z" fill="#91CAFF"/>
<path d="M328.012 175.53H360.9V173.551H328.012V175.53Z" fill="#4EAAFF"/>
<path d="M360.9 173.551H328.012V161.145H360.9V173.551Z" fill="#0085FF"/>
<path d="M195.154 264.274L194.75 269.5L194.244 275.973L182.065 275.662V273.302L182.622 267.292L182.78 265.603L195.154 264.274Z" fill="#FFD6BB"/>
<path d="M182.063 273.303L179.76 279.067C178.786 281.505 180.581 284.157 183.206 284.157H208.554C209.426 284.157 210.183 283.556 210.38 282.706C210.58 281.851 210.158 280.972 209.367 280.591L194.224 273.303C194.224 273.303 183.756 278.108 182.063 273.303Z" fill="#1F3A6F"/>
<path d="M217.747 275.659V273.3L216.907 268.068L216.843 267.676L216.54 265.645L229.502 264.405L229.698 268.682L229.913 273.306L229.926 275.97L217.747 275.659Z" fill="#FFD6BB"/>
<path d="M217.75 273.303L215.448 279.067C214.474 281.505 216.269 284.157 218.893 284.157H244.242C245.114 284.157 245.871 283.556 246.068 282.706C246.267 281.851 245.846 280.972 245.055 280.591L229.911 273.303C229.911 273.303 219.444 278.108 217.75 273.303Z" fill="#1F3A6F"/>
<path d="M182.78 265.603L195.154 264.274L194.75 269.5C189.603 269.633 184.917 268.165 182.622 267.292L182.78 265.603Z" fill="#FBB188"/>
<path d="M229.698 268.682C224.614 269.34 219.821 268.675 216.907 268.068L216.843 267.676L216.54 265.645L229.502 264.405L229.698 268.682Z" fill="#FBB188"/>
<path d="M186.166 152.443L182.177 265.601C182.177 265.601 190.167 268.26 195.569 265.601L204.484 178.359L216.212 266.486C216.212 266.486 223.138 269.164 230.648 266.486L224.559 155.163C224.559 155.163 203.452 147.692 186.166 152.443Z" fill="#1F3A6F"/>
<path d="M204.484 178.359L206.413 171.565L207.652 202.159L204.484 178.359Z" fill="#072542"/>
<path d="M225.347 148.03L225.832 150.59C226.081 151.91 225.979 153.272 225.537 154.54L224.661 157.045C209.527 160.284 186.314 157.075 186.314 157.075L184.69 154.157C183.857 152.661 183.733 150.88 184.322 149.272C184.877 147.76 185.577 145.365 186.247 141.701C186.389 140.925 186.553 139.761 186.732 138.306C187.56 131.566 188.723 118.446 189.663 107.237C190.558 96.5272 191.252 87.5564 191.252 87.5564L201.836 84.4069L213.42 84.8176L226.429 89.1833L223.967 110.349L225.347 148.03Z" fill="#5693DB"/>
<path d="M242.906 129.171C242.869 129.387 242.831 129.604 242.779 129.813C242.011 133.067 239.266 135.686 235.671 136.059C235.395 136.089 235.118 136.104 234.842 136.104C232.769 136.104 230.83 135.321 229.36 133.977C229.128 133.768 228.905 133.536 228.696 133.298L228.607 133.193C227.906 132.365 227.362 131.388 227.033 130.29L225.064 123.738L222.132 113.969C222.132 113.969 219.805 90.6092 226.428 89.1834L229.8 90.3852C232.277 91.2732 234.119 93.3778 234.664 95.9526L237.55 106.655L238.826 111.409L242.712 125.82C243.018 126.962 243.07 128.089 242.906 129.171Z" fill="#5693DB"/>
<path d="M195.909 60.2489C195.909 60.2489 195.192 71.3131 203.664 78.0007C212.136 84.6878 209.612 57.955 209.612 57.955L195.909 60.2489Z" fill="#1F3A6F"/>
<path d="M220.245 73.8171C219.745 75.3096 218.791 76.556 217.567 77.4291C216.352 78.3023 214.86 78.8026 213.286 78.8026L213.405 83.9969L213.42 84.8177V84.952C213.42 88.1462 210.832 90.7507 207.617 90.7507C204.201 90.7507 201.523 87.8103 201.836 84.407L202.038 82.1906L202.962 72.2124C201.127 72.8692 198.659 67.354 200.031 64.7643C201.404 62.167 203.88 63.6672 203.88 63.6672C204.051 64.4208 204.589 65.2119 205.059 65.7867C205.364 66.1599 205.968 66.0179 206.073 65.5478L206.767 62.5853L207.162 60.876H221.588C221.61 61.4656 221.625 62.0327 221.633 62.5853C221.707 67.5555 221.2 70.9813 220.245 73.8171Z" fill="#FFD6BB"/>
<path d="M221.585 60.877C221.585 60.877 220.517 49.4545 208.885 49.4545C197.253 49.4545 195.909 60.249 195.909 60.249L207.159 60.877H221.585Z" fill="#0085FF"/>
<path d="M229.597 59.4097H207.602C207.357 59.4097 207.159 59.6081 207.159 59.8528V60.4339C207.159 60.6786 207.357 60.877 207.602 60.877H229.597C229.841 60.877 230.04 60.6786 230.04 60.4339V59.8528C230.04 59.6081 229.841 59.4097 229.597 59.4097Z" fill="#0056A5"/>
<path d="M217.582 107.707L211.384 120.148C211.384 120.148 201.605 132.328 186.732 138.306C187.56 131.566 188.723 118.446 189.663 107.237L190.611 106.065L193.079 109.311L192.454 112.183C192.254 113.103 193.164 113.87 194.039 113.521C197.208 112.256 203.317 110.076 207.244 110.326C212.741 110.67 212.309 109.371 212.309 109.371L217.582 107.707Z" fill="#3177BC"/>
<path d="M202.963 72.2125L204.268 71.347L202.045 82.1907H202.038L202.963 72.2125Z" fill="#FBB188"/>
<path d="M213.286 78.8026L213.405 83.9968L213.286 83.9743C213.286 83.9743 208.818 81.422 207.386 75.8172C207.386 75.8172 209.788 78.817 213.286 78.8026Z" fill="#FBB188"/>
<path d="M221.633 62.5852H206.767L207.162 60.8759H221.588C221.61 61.4655 221.625 62.0326 221.633 62.5852Z" fill="#FBB188"/>
<path d="M219.541 112.644C219.4 112.644 219.259 112.585 219.159 112.472L210.291 102.467C210.104 102.256 210.123 101.934 210.334 101.747C210.544 101.56 210.867 101.579 211.054 101.79L219.922 111.795C220.109 112.006 220.09 112.328 219.878 112.515C219.782 112.601 219.661 112.644 219.541 112.644Z" fill="#072542"/>
<path d="M206.844 111.799L214.516 106.787H219.431L221.849 109.843L215.849 117.341L209.688 119.83L204.837 117.341L206.844 111.799Z" fill="#FFD6BB"/>
<path d="M191.249 87.5578L185.831 89.4438C183.453 90.271 181.581 92.1363 180.744 94.5118L170.172 124.492C167.73 131.417 174.241 138.191 181.237 135.968C191.439 132.726 203.675 127.484 209.688 119.83C209.688 119.83 206.75 118.532 206.844 111.798C206.844 111.798 205.528 109.916 200.295 112.575C195.063 115.232 186.344 119.619 186.344 119.619L193.079 109.309C193.079 109.309 198.352 91.5183 191.249 87.5578Z" fill="#5693DB"/>
<path d="M240.333 125.26L229.36 133.977C229.129 133.768 228.905 133.536 228.696 133.298L228.607 133.193C227.906 132.365 227.362 131.388 227.033 130.29L225.064 123.738L237.55 106.655L238.826 111.409L240.333 125.26Z" fill="#3177BC"/>
<path d="M220.577 99.8518H240.9C241.571 99.8518 242.001 100.566 241.687 101.16L228.585 125.913C228.431 126.205 228.128 126.387 227.798 126.387H207.675C207.006 126.387 206.576 125.677 206.885 125.084L219.787 100.331C219.94 100.037 220.245 99.8518 220.577 99.8518Z" fill="#0085FF"/>
<path d="M226.68 107.162L225.527 105.329L225.233 99.8518H223.694L224.117 98.28L225.974 96.7645H233.194C233.704 96.7645 234.147 97.1193 234.259 97.6178L234.838 98.7411L235.261 98.7659C235.953 98.7889 236.501 99.356 236.501 100.048V102.694L234.022 106.801L230.267 109.345L226.68 107.162Z" fill="#FFD6BB"/>
<path d="M242.906 129.171C242.869 129.387 242.831 129.604 242.779 129.813C242.011 133.067 239.266 135.686 235.671 136.059C235.395 136.089 235.118 136.104 234.842 136.104C232.441 136.104 230.218 135.052 228.696 133.298L224.713 111.028L226.683 107.162C229.084 107.61 234.022 106.804 234.022 106.804L236.595 109.274L240.329 125.258L242.906 129.171Z" fill="#5693DB"/>
<path d="M131.129 101.062L132.19 104.849C132.259 105.097 132.452 105.29 132.7 105.36L136.485 106.421C137.202 106.622 137.202 107.64 136.485 107.841L132.7 108.902C132.452 108.972 132.259 109.165 132.19 109.413L131.129 113.2C130.928 113.917 129.912 113.917 129.711 113.2L128.649 109.413C128.58 109.165 128.387 108.972 128.139 108.902L124.354 107.841C123.637 107.64 123.637 106.622 124.354 106.421L128.139 105.36C128.387 105.29 128.58 105.097 128.649 104.849L129.711 101.062C129.912 100.345 130.928 100.345 131.129 101.062Z" fill="#68B7FF"/>
<path d="M58.5344 161.279L59.5954 165.066C59.6647 165.314 59.8585 165.507 60.1058 165.577L63.8906 166.639C64.6074 166.84 64.6074 167.857 63.8906 168.058L60.1058 169.119C59.8585 169.189 59.6647 169.382 59.5954 169.63L58.5344 173.417C58.3334 174.134 57.3171 174.134 57.1161 173.417L56.0551 169.63C55.9858 169.382 55.792 169.189 55.5442 169.119L51.7598 168.058C51.0426 167.857 51.0426 166.84 51.7598 166.639L55.5442 165.577C55.792 165.507 55.9858 165.314 56.0551 165.066L57.1161 161.279C57.3171 160.562 58.3334 160.562 58.5344 161.279Z" fill="#68B7FF"/>
<path d="M207.122 15.7246L208.183 19.5111C208.252 19.759 208.445 19.9524 208.693 20.0222L212.478 21.0838C213.195 21.2844 213.195 22.3018 212.478 22.5028L208.693 23.5644C208.445 23.6338 208.252 23.8276 208.183 24.0751L207.122 27.862C206.92 28.5792 205.904 28.5792 205.703 27.862L204.642 24.0751C204.573 23.8276 204.379 23.6338 204.132 23.5644L200.347 22.5028C199.63 22.3018 199.63 21.2844 200.347 21.0838L204.132 20.0222C204.379 19.9524 204.573 19.759 204.642 19.5111L205.703 15.7246C205.904 15.007 206.92 15.007 207.122 15.7246Z" fill="#68B7FF"/>
<path d="M361.609 136.01L362.67 139.797C362.74 140.045 362.933 140.238 363.18 140.307L366.966 141.369C367.682 141.57 367.682 142.587 366.966 142.788L363.18 143.85C362.933 143.919 362.74 144.113 362.67 144.361L361.609 148.148C361.409 148.865 360.392 148.865 360.191 148.148L359.13 144.361C359.06 144.113 358.867 143.919 358.619 143.85L354.834 142.788C354.118 142.587 354.118 141.57 354.834 141.369L358.619 140.307C358.867 140.238 359.06 140.045 359.13 139.797L360.191 136.01C360.392 135.293 361.409 135.293 361.609 136.01Z" fill="#68B7FF"/>
<path d="M243.648 31.717C243.648 33.5494 242.164 35.0342 240.333 35.0342C238.501 35.0342 237.017 33.5494 237.017 31.717C237.017 29.885 238.501 28.4002 240.333 28.4002C242.164 28.4002 243.648 29.885 243.648 31.717Z" fill="#B7CAE5"/>
<path d="M178.716 42.5053C178.716 44.3372 177.232 45.8225 175.401 45.8225C173.569 45.8225 172.085 44.3372 172.085 42.5053C172.085 40.6729 173.569 39.1881 175.401 39.1881C177.232 39.1881 178.716 40.6729 178.716 42.5053Z" fill="#B7CAE5"/>
<path d="M346.264 119.394C346.264 121.226 344.78 122.711 342.949 122.711C341.118 122.711 339.633 121.226 339.633 119.394C339.633 117.562 341.118 116.077 342.949 116.077C344.78 116.077 346.264 117.562 346.264 119.394Z" fill="#B7CAE5"/>
</g>
<defs>
<clipPath id="clip0_89_2669">
<rect width="473" height="293" fill="white"/>
</clipPath>
</defs>
</svg>
