<svg width="50" height="50" viewBox="0 0 50 50" fill="none" xmlns="http://www.w3.org/2000/svg">
<g id="Group">
<path id="Path" fill-rule="evenodd" clip-rule="evenodd" d="M20.9051 20.7143H30.8103C31.3154 20.7142 31.7998 20.5259 32.1569 20.1909C32.514 19.856 32.7145 19.4017 32.7143 18.9282V13.9289C32.7143 13.4552 32.5137 13.0008 32.1564 12.6658C31.7991 12.3308 31.3145 12.1427 30.8091 12.1428H20.904C20.3989 12.1429 19.9145 12.3312 19.5574 12.6661C19.2003 13.0011 18.9998 13.4553 19 13.9289V18.9293C19 19.4028 19.2009 19.8569 19.5582 20.1917C19.9155 20.5265 20.4 20.7144 20.9051 20.7143Z" stroke="#0085FF" stroke-width="2" stroke-linecap="round" stroke-linejoin="round"/>
<path id="Path_2" d="M34.9133 40.8281H33.0108C32.4935 40.8277 31.9822 40.9387 31.5116 41.1536L23.9041 44.6183" stroke="#0085FF" stroke-width="2" stroke-linecap="round" stroke-linejoin="round"/>
<path id="Path_3" d="M43.0075 29.1788H38.0054C36.3479 29.1788 35.0042 30.5225 35.0042 32.1801V40.1834C35.0042 41.841 36.3479 43.1847 38.0054 43.1847H43.0075" stroke="#0085FF" stroke-width="2" stroke-linecap="round" stroke-linejoin="round"/>
<path id="Path_4" d="M6.99243 43.1847H11.9945C13.6521 43.1847 14.9958 41.841 14.9958 40.1834V32.1801C14.9958 30.5225 13.6521 29.1788 11.9945 29.1788H6.99243" stroke="#0085FF" stroke-width="2" stroke-linecap="round" stroke-linejoin="round"/>
<path id="Path_5" d="M35.8153 30.035L29.6185 27.3072C28.504 26.8167 27.2174 26.92 26.1954 27.5821L21.4757 30.6399C20.7664 31.0996 20.3108 31.8626 20.2425 32.705C20.1741 33.5475 20.5008 34.3739 21.1267 34.9419V34.9419C21.9391 35.6776 23.1133 35.855 24.1068 35.3921L26.9205 34.0775L28.8984 35.8727C29.4764 36.3973 29.8224 37.1301 29.8601 37.9098C29.8979 38.6895 29.6244 39.4522 29.0997 40.0302C29.0386 40.0975 28.9745 40.1619 28.9074 40.2234L24.7161 44.0595C23.3386 45.3202 21.2277 45.325 19.8445 44.0705L17.3249 41.7853C16.7047 41.2347 15.9249 40.8964 15.0991 40.8196" stroke="#0085FF" stroke-width="2" stroke-linecap="round" stroke-linejoin="round"/>
<path id="Path_6" d="M15.0364 31.2871L19.4053 29.7124C20.4102 29.3601 21.5194 29.4714 22.4343 30.0162" stroke="#0085FF" stroke-width="2" stroke-linecap="round" stroke-linejoin="round"/>
<path id="Path_7" d="M27.0693 15.2164C27.7388 15.8859 27.7388 16.9713 27.0693 17.6408C26.3998 18.3102 25.3144 18.3102 24.6449 17.6408C23.9755 16.9713 23.9755 15.8859 24.6449 15.2164C24.9664 14.8949 25.4024 14.7143 25.8571 14.7143C26.3118 14.7143 26.7478 14.8949 27.0693 15.2164" stroke="#0085FF" stroke-width="2" stroke-linecap="round" stroke-linejoin="round"/>
</g>
</svg>
