<svg width="32" height="32" viewBox="0 0 32 32" fill="none" xmlns="http://www.w3.org/2000/svg">
<g id="Group">
<g id="Group_2">
<path id="Path" fill-rule="evenodd" clip-rule="evenodd" d="M9.8787 18.9947L7.83203 9.33333H24.6667C25.5347 9.33333 26.1707 10.148 25.96 10.9907L24.1627 18.18C23.8894 19.272 22.9614 20.0747 21.8414 20.1867L12.7534 21.096C11.3987 21.2307 10.16 20.3253 9.8787 18.9947Z" stroke="#0F1621" stroke-width="2" stroke-linecap="round" stroke-linejoin="round"/>
<path id="Path_2" d="M7.83208 9.33334L6.96541 5.33334H4.66675" stroke="#0F1621" stroke-width="2" stroke-linecap="round" stroke-linejoin="round"/>
<path id="Path_3" d="M22.812 25.6893C22.5426 25.6893 22.324 25.908 22.3266 26.1773C22.3266 26.4467 22.5453 26.6653 22.8146 26.6653C23.084 26.6653 23.3026 26.4467 23.3026 26.1773C23.3013 25.908 23.0826 25.6893 22.812 25.6893" stroke="#0F1621" stroke-width="2" stroke-linecap="round" stroke-linejoin="round"/>
<path id="Path_4" d="M11.5961 25.6893C11.3267 25.6893 11.1081 25.908 11.1107 26.1773C11.1081 26.448 11.3281 26.6667 11.5974 26.6667C11.8667 26.6667 12.0854 26.448 12.0854 26.1787C12.0854 25.908 11.8667 25.6893 11.5961 25.6893" stroke="#0F1621" stroke-width="2" stroke-linecap="round" stroke-linejoin="round"/>
</g>
</g>
</svg>
