<svg width="50" height="50" viewBox="0 0 50 50" fill="none" xmlns="http://www.w3.org/2000/svg">
<g id="Group">
<path id="Path" d="M29.5018 36.0046V45.0083L24.9999 42.7574L20.498 45.0083V36.0046" stroke="#0093FF" stroke-width="2" stroke-linecap="round" stroke-linejoin="round"/>
<path id="Path_2" fill-rule="evenodd" clip-rule="evenodd" d="M17.4369 30.6764L18.5013 32.0769L18.7314 33.8077C18.8593 34.7675 19.6144 35.5225 20.5742 35.6504L22.3089 35.8825L23.6975 36.945C24.4661 37.5293 25.53 37.5293 26.2986 36.945L27.6992 35.8825V35.8825L29.4319 35.6504C30.3921 35.5227 31.1479 34.7678 31.2767 33.8077L31.5088 32.0729C31.5088 32.0729 32.045 31.3707 32.5712 30.6844C33.1555 29.9158 33.1555 28.8519 32.5712 28.0833L31.5088 26.6827L31.2767 24.952C31.1498 23.9921 30.3955 23.2362 29.4359 23.1072L27.6992 22.8771L26.2986 21.8167C25.5307 21.2303 24.4654 21.2303 23.6975 21.8167L22.2969 22.8771V22.8771L20.5642 23.1072C19.6041 23.2345 18.8487 23.9899 18.7214 24.95L18.4893 26.6847L17.4269 28.0733C16.8459 28.845 16.85 29.9092 17.4369 30.6764V30.6764Z" stroke="#0093FF" stroke-width="2" stroke-linecap="round" stroke-linejoin="round"/>
<path id="Path_3" d="M35.0041 39.0058H39.0058C41.2158 39.0058 43.0074 37.2142 43.0074 35.0041V12.1806C43.0074 9.97056 41.2158 8.17896 39.0058 8.17896H10.9941C8.78404 8.17896 6.99243 9.97056 6.99243 12.1806V35.0041C6.99243 37.2142 8.78404 39.0058 10.9941 39.0058H14.9958" stroke="#0093FF" stroke-width="2" stroke-linecap="round" stroke-linejoin="round"/>
<path id="Path_4" d="M15.9963 14.9958H34.0038" stroke="#0093FF" stroke-width="2" stroke-linecap="round" stroke-linejoin="round"/>
</g>
</svg>
